# Blender v2.82 (sub 7) OBJ File: ''
# www.blender.org
mtllib fox.mtl
o Fox
v -0.250006 0.269688 0.109861
v -0.203029 0.166542 0.011476
v -0.301455 0.084883 0.117863
v -0.256016 0.183162 0.247491
v -0.250006 0.295023 0.306760
v -0.275048 0.085221 0.215164
v -0.094765 0.532897 -0.017112
v -0.165074 0.497564 0.012458
v -0.096946 0.560511 0.025029
v -0.156538 0.572760 0.059258
v -0.137882 0.006020 -0.296086
v -0.190367 -0.032999 -0.238515
v -0.153542 0.097133 -0.178123
v 0.396284 -0.030916 -0.247538
v 0.320859 0.110733 -0.213934
v 0.336848 0.080025 -0.005549
v -0.402141 -0.291067 -0.212428
v -0.453182 -0.245164 -0.096163
v -0.418396 -0.236178 -0.290547
v -0.214593 -0.073181 -0.308325
v -0.294348 -0.156499 -0.204082
v -0.323030 -0.098093 -0.178506
v -0.225812 -0.002647 -0.010552
v -0.192469 0.071799 -0.011139
v -0.318997 0.391257 0.071076
v -0.227083 0.422716 0.013275
v -0.174692 0.298315 0.036401
v -0.257020 -0.057536 0.028360
v -0.228432 -0.008481 0.046139
v -0.193552 -0.097774 -0.034750
v -0.262229 -0.128464 0.083124
v -0.287915 -0.036985 0.155206
v -0.438402 -0.195912 -0.165769
v -0.388867 0.484114 0.261658
v -0.336100 0.541883 0.309274
v -0.260880 0.575377 0.144639
v -0.515897 0.371363 0.184789
v -0.564537 0.444973 0.223791
v 0.339374 -0.200330 -0.305543
v 0.354720 -0.076932 -0.333454
v -0.356623 0.470214 0.141538
v 0.012495 0.575218 0.072263
v 0.144326 0.503399 0.217130
v 0.157553 0.415278 0.099715
v 0.239191 0.167029 0.040753
v -0.351696 -0.222766 -0.406762
v 0.006642 0.316502 -0.008880
v -0.141632 0.398507 -0.002154
v -0.350268 0.524484 0.123517
v 0.021815 0.245217 -0.073445
v 0.128400 0.250489 -0.000342
v 0.107846 0.187074 -0.238119
v -0.348040 -0.281031 -0.423200
v -0.231335 -0.243795 -0.508504
v -0.168338 -0.038617 -0.342682
v 0.435463 -0.106347 -0.071340
v 0.422659 -0.206089 -0.271595
v -0.118646 0.673497 0.002325
v -0.124577 0.686375 0.066010
v -0.111946 0.609669 0.151837
v 0.017124 0.580639 0.175026
v -0.027123 0.500303 0.008209
v 0.163217 0.068629 -0.370453
v -0.026574 0.113031 -0.310393
v -0.061486 0.597935 -0.000100
v -0.057657 0.256923 -0.040340
v -0.343961 -0.265846 -0.370836
v -0.218484 0.012614 -0.067000
v -0.363213 -0.164650 0.014909
v -0.370713 -0.217851 0.027403
v -0.133850 -0.106225 -0.392723
v -0.166251 0.152998 -0.046504
v -0.076674 0.203638 -0.087510
v 0.225822 0.202259 0.118923
v 0.180603 0.261575 0.099588
v -0.306461 0.338703 0.273093
v -0.349609 0.357715 0.136905
v 0.269207 -0.272065 -0.374294
v 0.113714 -0.285571 -0.495754
v 0.223751 -0.104021 -0.446108
v -0.290661 -0.158197 -0.046083
v -0.380567 -0.176159 -0.132421
v -0.223286 -0.165888 -0.314502
v -0.423967 -0.284605 -0.065009
v -0.203625 -0.044264 -0.143384
v 0.424856 -0.220712 -0.078665
v -0.104619 -0.005038 -0.324648
v -0.255043 -0.171469 -0.415619
v -0.367402 -0.192076 -0.278665
v 0.203511 0.293456 0.176162
v -0.510264 0.384532 0.296359
v -0.096648 -0.193717 -0.384479
v -0.175069 0.609669 0.121207
v 0.129028 0.013955 -0.411816
v -0.224070 0.129220 0.306990
v 0.016857 -0.066108 -0.440991
v -0.030921 -0.235681 -0.536466
v 0.200718 -0.238448 0.098630
v 0.260059 -0.285046 0.154798
v 0.294704 -0.280975 0.031985
v -0.079922 -0.260556 0.341844
v -0.074901 -0.251767 0.191260
v -0.188421 -0.244667 0.202631
v -0.230927 -0.237604 0.077036
v -0.234520 -0.233984 0.152182
v -0.236748 -0.144681 0.156304
v -0.102783 0.656332 0.463534
v -0.046705 0.558203 0.461109
v 0.008243 0.599933 0.387916
v 0.090979 0.369665 0.370381
v -0.075105 0.513144 0.458773
v -0.136580 0.517449 0.388414
v -0.176967 0.426346 0.453132
v -0.109138 0.466406 0.442437
v -0.279112 0.390872 0.373980
v -0.186272 -0.313400 0.305216
v -0.270184 -0.264223 0.258978
v 0.056365 -0.203716 -0.474735
v 0.126988 0.437095 0.317621
v 0.090916 0.310921 0.342316
v -0.216633 -0.107050 0.207098
v -0.092208 -0.168299 0.181612
v -0.052636 -0.050529 0.204597
v -0.012014 0.006667 0.273807
v -0.050581 -0.233177 0.261798
v 0.030225 -0.241262 0.283124
v -0.136439 0.586670 0.398854
v -0.081130 0.556627 0.415164
v 0.334463 -0.041300 0.031653
v 0.161617 -0.117049 0.125138
v 0.313203 -0.137975 0.132183
v -0.343129 -0.263914 0.016849
v 0.134472 -0.163956 0.233083
v 0.098102 -0.004532 0.300328
v 0.123034 -0.282476 0.171925
v 0.419066 -0.132853 0.024289
v 0.032688 0.247703 0.350931
v -0.070523 0.354245 0.417742
v -0.117422 0.111643 0.360962
v -0.330091 0.461491 0.325814
v 0.246816 0.117215 0.132744
v 0.092940 0.106935 0.353636
v 0.178280 0.048547 0.250274
v -0.352434 -0.299537 0.220856
v -0.120890 0.590394 0.274892
v -0.113515 0.675579 0.408655
v -0.056041 -0.285374 -0.526563
v -0.117987 0.032236 0.272085
v -0.154860 0.576578 0.312809
v -0.388917 -0.313625 -0.054022
v -0.413695 -0.313625 -0.075023
v -0.404653 -0.313625 -0.142218
v -0.338882 -0.313625 0.201899
v -0.310550 -0.313625 0.177338
v -0.331753 -0.313625 0.244498
v -0.188348 -0.313625 0.303368
v -0.212253 -0.313625 0.085178
v -0.204451 -0.313625 -0.450680
v -0.297080 -0.313625 0.269679
v -0.187822 -0.313625 0.304806
v 0.300183 -0.313625 -0.264242
v 0.266251 -0.313625 0.107453
v 0.286612 -0.313625 -0.292639
v 0.311402 -0.313625 -0.032878
v -0.010530 -0.313625 0.357794
v -0.108432 -0.313625 0.373114
v -0.048158 -0.313625 -0.504408
v 0.315022 -0.313625 -0.229050
v 0.312263 -0.313625 -0.259731
v 0.340482 -0.313625 -0.074493
v -0.358322 -0.313625 -0.331324
v -0.381699 -0.313625 -0.247576
v -0.278671 -0.313625 -0.423561
v -0.254007 -0.313625 -0.434350
v -0.243640 -0.313625 0.068513
v -0.309402 -0.313625 0.164919
v 0.050931 -0.313625 0.185617
v 0.011000 -0.313625 0.349377
v 0.022811 -0.313625 -0.491589
v -0.231408 -0.313625 -0.436560
v 0.177667 -0.313625 -0.423731
v 0.083979 -0.313625 0.162910
v 0.126918 -0.313625 -0.466267
v 0.199643 -0.313625 0.160810
v -0.186540 -0.313625 0.302503
v -0.184684 -0.313625 0.296444
v -0.184110 -0.313625 0.298107
v -0.183276 -0.313625 0.300515
v -0.179539 -0.313625 0.311306
v 0.253449 -0.313625 0.154137
vn -0.7900 0.1948 -0.5814
vn -0.9983 0.0576 -0.0074
vn -0.9539 0.2711 0.1288
vn -0.9603 0.1007 0.2603
vn -0.5466 0.6872 -0.4786
vn -0.3405 0.5244 -0.7804
vn -0.7935 0.4262 -0.4345
vn 0.8828 0.4697 0.0015
vn -0.8481 -0.5001 -0.1749
vn -0.7562 -0.0874 -0.6484
vn -0.3975 0.1709 -0.9016
vn -0.4176 -0.3330 -0.8454
vn -0.4179 0.5148 -0.7485
vn -0.9704 -0.0989 -0.2203
vn -0.9835 0.0497 -0.1737
vn -0.6631 0.7325 -0.1539
vn -0.5055 0.1187 -0.8546
vn 0.9198 -0.1918 -0.3423
vn -0.5820 0.3692 -0.7245
vn 0.7205 0.5912 -0.3625
vn 0.6788 0.7322 0.0558
vn -0.6888 0.6503 -0.3203
vn -0.2040 -0.2922 -0.9343
vn -0.5109 0.8530 0.1065
vn 0.1354 0.9544 -0.2662
vn 0.3454 0.9336 -0.0956
vn -0.6170 0.1776 -0.7666
vn -0.7098 0.6792 -0.1867
vn 0.9752 0.1668 -0.1454
vn 0.6557 0.4862 -0.5776
vn 0.6400 0.7269 -0.2492
vn 0.6295 0.7709 -0.0972
vn 0.2295 0.9714 -0.0616
vn 0.4854 0.4056 -0.7745
vn -0.0115 -0.6282 -0.7780
vn -0.0418 0.7357 -0.6760
vn 0.6720 0.5251 -0.5222
vn -0.3687 0.5149 -0.7739
vn -0.2453 0.6463 -0.7226
vn -0.6227 0.5771 -0.5284
vn -0.9904 -0.0914 0.1037
vn -0.9126 0.4087 -0.0080
vn -0.5100 -0.0911 -0.8553
vn 0.6672 -0.1506 -0.7294
vn -0.8316 0.2354 0.5030
vn -0.5800 0.5194 -0.6275
vn -0.5557 0.3874 -0.7356
vn -0.7819 0.2741 -0.5600
vn 0.8081 0.5764 -0.1216
vn -0.6439 -0.7588 0.0981
vn -0.0332 0.1382 -0.9899
vn 0.6161 -0.1627 -0.7707
vn 0.3819 0.1819 -0.9061
vn -0.3089 0.6301 -0.7124
vn -0.2101 0.9776 0.0154
vn -0.5080 0.7309 0.4559
vn -0.4983 0.7760 -0.3867
vn -0.7670 -0.6359 -0.0857
vn -0.9739 -0.2261 -0.0211
vn 0.6621 -0.1359 -0.7370
vn 0.9957 -0.0912 -0.0182
vn 0.4055 -0.5880 0.6999
vn -0.5224 0.8048 -0.2819
vn -0.1391 0.9884 -0.0608
vn -0.9634 -0.1705 -0.2070
vn -0.9647 -0.0269 0.2619
vn 0.4024 0.6601 -0.6343
vn -0.4437 -0.3086 -0.8414
vn -0.4712 0.8429 -0.2597
vn -0.3317 0.9342 -0.1315
vn -0.2689 0.7321 -0.6259
vn -0.1815 0.9701 -0.1610
vn -0.9647 0.0260 -0.2620
vn -0.2919 0.8438 -0.4504
vn -0.5289 0.7381 -0.4189
vn -0.7228 0.2753 -0.6338
vn -0.5792 0.7288 -0.3653
vn 0.4995 0.1707 -0.8494
vn 0.9311 0.1399 -0.3368
vn 0.8726 0.1313 -0.4704
vn -0.9380 0.3374 0.0793
vn -0.2460 -0.2763 -0.9290
vn -0.4957 -0.5064 -0.7056
vn -0.8015 -0.5878 0.1098
vn -0.2181 0.6293 -0.7460
vn -0.1108 -0.9885 -0.1029
vn 0.5343 0.8425 -0.0685
vn 0.5085 0.4889 -0.7088
vn -0.4223 0.9052 0.0483
vn -0.8969 0.3692 -0.2433
vn 0.0067 0.0938 -0.9956
vn -0.9874 -0.0631 -0.1451
vn -0.5109 -0.2934 -0.8080
vn -0.8310 0.1142 -0.5445
vn -0.2541 0.9588 -0.1272
vn -0.8947 -0.4464 0.0161
vn 0.6411 0.6506 -0.4071
vn -0.7876 0.1827 -0.5885
vn -0.9428 -0.2700 -0.1954
vn -0.9500 -0.3031 -0.0751
vn -0.2535 0.4568 -0.8527
vn -0.4417 0.3570 -0.8231
vn -0.1462 0.1104 -0.9831
vn -0.2109 0.6890 -0.6933
vn -0.6272 -0.5362 -0.5649
vn -0.4729 0.7722 0.4242
vn -0.8401 0.0356 -0.5412
vn 0.3050 0.4543 -0.8370
vn -0.2588 0.8731 -0.4131
vn -0.9217 0.1428 -0.3608
vn -0.1904 0.6879 -0.7004
vn -0.2179 -0.8249 -0.5216
vn -0.6448 -0.7581 0.0975
vn 0.3369 0.7672 -0.5457
vn 0.5217 0.6728 0.5245
vn 0.5423 0.3617 -0.7584
vn -0.7221 -0.1404 -0.6774
vn 0.2745 0.4651 -0.8416
vn -0.0690 0.5705 -0.8184
vn -0.6444 -0.6823 -0.3453
vn -0.7025 0.6963 -0.1472
vn -0.5459 0.4865 -0.6821
vn -0.7918 0.5651 0.2317
vn -0.8766 0.0115 0.4811
vn 0.7901 -0.2270 -0.5694
vn -0.3810 0.4826 -0.7886
vn -0.8972 0.3675 -0.2448
vn -0.2433 0.7749 -0.5834
vn -0.6956 0.1125 -0.7095
vn -0.6721 0.1874 -0.7164
vn -0.0943 0.9952 -0.0253
vn -0.3766 0.2618 0.8886
vn -0.4591 0.8496 -0.2598
vn -0.6713 0.7188 -0.1807
vn -0.7137 -0.5198 -0.4696
vn 0.5266 0.5222 -0.6708
vn -0.3029 0.9522 -0.0387
vn -0.8752 0.4517 -0.1729
vn -0.8185 -0.5664 -0.0961
vn -0.4350 0.7104 -0.5533
vn -0.5413 0.6094 -0.5794
vn 0.2129 0.9696 -0.1204
vn 0.0856 0.9693 -0.2306
vn 0.5039 0.8468 0.1702
vn 0.0683 0.9958 0.0604
vn -0.3497 -0.1519 0.9245
vn -0.9987 -0.0228 -0.0467
vn 0.6423 0.3502 0.6818
vn 0.2927 -0.2326 0.9275
vn -0.2588 0.6330 0.7296
vn -0.3443 -0.6069 0.7163
vn 0.1797 0.8190 0.5450
vn 0.0207 0.2437 -0.9696
vn 0.9053 -0.1839 0.3829
vn 0.0906 -0.2200 0.9713
vn -0.2559 -0.0073 0.9667
vn -0.3488 -0.1391 0.9268
vn -0.9243 -0.2796 0.2599
vn -0.0552 0.9654 0.2549
vn -0.4104 0.6657 -0.6232
vn 0.8844 0.4668 0.0032
vn 0.2056 0.0104 0.9786
vn -0.7425 -0.0494 0.6680
vn -0.6798 0.4788 0.5555
vn 0.0658 0.7122 0.6988
vn -0.3562 -0.4061 0.8415
vn 0.5480 -0.2159 0.8081
vn 0.1072 0.1361 0.9849
vn -0.2041 -0.9710 0.1249
vn 0.9697 -0.1792 0.1660
vn 0.6305 -0.4985 0.5950
vn -0.6542 -0.5180 0.5511
vn -0.5174 0.7059 0.4838
vn 0.0084 0.9452 0.3264
vn -0.6481 0.7612 0.0228
vn 0.3082 -0.2729 0.9113
vn -0.2178 -0.6699 0.7097
vn -0.3041 0.3771 0.8748
vn 0.8178 0.0599 0.5724
vn 0.9328 0.2051 0.2963
vn 0.8466 0.1408 0.5133
vn -0.7188 0.0882 0.6896
vn 0.6065 -0.1875 0.7726
vn 0.6222 -0.4056 0.6696
vn -0.1188 0.7685 -0.6287
vn 0.6418 -0.3065 0.7030
vn 0.0876 0.8102 0.5796
vn 0.6690 0.0536 0.7413
vn 0.6758 -0.5415 0.5001
vn -0.4341 0.8943 0.1082
vn -0.1808 0.5504 -0.8151
vn -0.2592 0.6422 0.7214
vn 0.3896 0.7669 -0.5099
vn -0.2194 0.6278 0.7468
vn 0.5373 -0.2218 0.8137
vn -0.6366 0.5003 0.5868
vn 0.1714 -0.2752 -0.9460
vn 0.3659 -0.2136 0.9058
vn -0.4976 -0.1053 0.8610
vn 0.6028 0.5076 0.6156
vn -0.7178 -0.4239 0.5524
vn 0.7904 0.0321 0.6117
vn 0.2893 -0.1098 0.9509
vn 0.8862 -0.3328 0.3224
vn 0.9849 -0.1004 0.1410
vn -0.4340 -0.7499 0.4994
vn -0.7517 -0.3514 0.5581
vn -0.9219 -0.1498 0.3573
vn 0.0123 0.2568 -0.9664
vn -0.7857 0.4980 -0.3670
vn 0.9508 0.2895 -0.1102
vn -0.2026 0.9736 0.1055
vn 0.0052 0.9959 -0.0900
vn -0.1883 0.9649 0.1829
vn 0.5314 0.8454 -0.0544
vn 0.1880 0.9681 0.1653
vn -0.6197 0.1135 0.7766
vn -0.3943 0.6916 0.6051
vn 0.7129 0.6348 0.2982
vn 0.5411 0.8210 0.1821
vn -0.9395 0.2998 0.1660
vn -0.9560 0.1629 0.2441
vn -0.7107 0.2942 0.6390
vn -0.7289 0.4318 0.5313
vn 0.6962 0.1732 0.6966
vn 0.1277 -0.4088 0.9036
vn -0.9767 -0.0301 0.2126
vn -0.1576 0.7590 0.6317
vn -0.6271 0.0760 0.7752
vn 0.2924 -0.4125 0.8628
vn 0.2305 -0.1329 0.9640
vn -0.4184 -0.6760 0.6066
vn -0.2345 -0.0034 0.9721
vn 0.3862 0.4738 -0.7914
vn 0.7311 0.5046 0.4591
vn -0.3081 0.9245 0.2246
vn -0.1389 -0.8638 0.4843
vn -0.2947 0.6143 0.7320
vn 0.8156 -0.1225 0.5655
vn 0.6454 0.2898 0.7067
vn 0.7815 0.4575 -0.4243
vn 0.9710 0.2392 -0.0027
vn 0.9674 0.2476 0.0539
vn -0.6928 -0.3082 0.6519
vn -0.7143 0.0234 0.6995
vn 0.9657 -0.2113 0.1510
vn -0.2513 -0.1962 -0.9478
vn -0.8969 0.1229 0.4248
vn -0.3189 0.6829 0.6572
vn -0.0777 -0.2365 0.9685
vn -0.8830 -0.4173 0.2150
vn 0.0269 -0.0337 0.9991
vn -0.7164 -0.2451 0.6532
vn -0.4734 -0.4656 0.7478
vn -0.0724 0.9862 0.1492
vn 0.6666 -0.5446 0.5090
vn -0.4409 -0.6892 0.5750
vn 0.0356 0.0344 0.9988
vn 0.0129 -0.6310 0.7756
vn 0.7565 0.1781 0.6293
vn 0.2843 -0.5746 0.7675
vn -0.5037 0.0666 -0.8613
vn 0.8049 0.1699 0.5686
vn -0.1809 -0.7034 0.6874
vn -0.2525 -0.4270 0.8683
vn -0.1872 -0.7319 0.6551
vn -0.8144 0.1651 0.5563
vn -0.8559 -0.1911 0.4805
vn -0.1233 0.9416 -0.3133
vn -0.6982 -0.5409 0.4690
vn -0.0931 0.6371 -0.7652
vn 0.0319 0.3025 -0.9526
vn 0.7096 0.6426 0.2891
vn -0.6735 0.6397 -0.3703
vn 0.0000 -1.0000 0.0000
vn 0.5738 -0.4495 -0.6846
vn 0.8168 -0.4248 -0.3903
vn 0.3176 -0.4198 -0.8503
vn 0.3175 -0.4198 -0.8503
vn -0.9480 -0.2915 -0.1276
vn -0.3064 -0.6444 -0.7006
vn -0.2499 -0.6397 -0.7269
vn -0.8770 -0.4134 -0.2448
vn 0.6930 -0.7183 -0.0623
vn 0.7322 -0.6703 -0.1206
vn 0.5621 -0.6824 -0.4672
vn -0.8548 -0.4845 -0.1862
vn -0.4689 -0.0206 0.8830
vn -0.5130 0.6233 0.5902
vn -0.5266 0.4438 0.7251
vn 0.1383 0.4466 0.8840
vn 0.0173 -0.2979 0.9544
vn -0.5801 -0.4415 0.6845
vn -0.6171 -0.2321 -0.7519
vn 0.9450 -0.1207 0.3040
vn -0.7322 0.6777 -0.0677
vn 0.9707 -0.0412 0.2367
vn -0.6110 0.3606 -0.7048
vn -0.2868 0.3492 0.8921
vn -0.2868 0.3494 0.8920
vn 0.1441 -0.5854 -0.7978
vn -0.4632 0.0579 -0.8844
vn 0.9400 -0.2234 0.2578
vn -0.0680 -0.7159 -0.6949
vn 0.6656 -0.5836 0.4651
vn 0.4109 -0.6882 0.5980
vn -0.5776 -0.4443 0.6848
vn -0.6405 -0.7604 0.1072
vn 0.2904 0.6031 0.7429
vn 0.1229 -0.0513 0.9911
vn 0.1585 -0.9857 -0.0580
vn -0.0487 -0.9987 0.0168
vn 0.0377 -0.9962 0.0790
vn 0.2002 -0.9778 0.0613
vn -0.4005 -0.8485 -0.3458
vn 0.1748 -0.6731 -0.7186
vn -0.0486 -0.9987 0.0168
usemtl None
s off
f 1//1 2//1 3//1
f 1//2 4//2 5//2
f 3//3 4//3 1//3
f 6//4 4//4 3//4
f 7//5 8//5 9//5
f 9//6 8//6 10//6
f 11//7 12//7 13//7
f 14//8 15//8 16//8
f 17//9 18//9 19//9
f 20//10 21//10 22//10
f 23//11 2//11 24//11
f 25//12 26//12 27//12
f 28//13 29//13 30//13
f 31//14 32//14 28//14
f 33//15 19//15 18//15
f 34//16 35//16 36//16
f 37//17 38//17 25//17
f 39//18 40//18 14//18
f 41//19 26//19 25//19
f 42//20 43//20 44//20
f 45//21 16//21 15//21
f 46//22 19//22 33//22
f 47//23 27//23 48//23
f 34//24 36//24 49//24
f 50//25 51//25 52//25
f 52//26 45//26 15//26
f 53//27 46//27 54//27
f 12//28 11//28 55//28
f 14//29 56//29 57//29
f 40//30 15//30 14//30
f 51//31 45//31 52//31
f 42//32 58//32 59//32
f 42//33 60//33 61//33
f 7//34 42//34 62//34
f 62//35 8//35 7//35
f 63//36 64//36 52//36
f 42//37 65//37 58//37
f 25//38 38//38 41//38
f 27//39 47//39 66//39
f 64//40 11//40 13//40
f 53//41 67//41 46//41
f 68//42 23//42 24//42
f 10//43 65//43 9//43
f 65//44 42//44 7//44
f 69//45 18//45 70//45
f 71//46 11//46 64//46
f 72//47 27//47 73//47
f 2//48 27//48 72//48
f 74//49 45//49 75//49
f 1//50 76//50 77//50
f 62//51 48//51 8//51
f 78//52 79//52 80//52
f 39//53 14//53 57//53
f 81//54 28//54 30//54
f 81//55 21//55 82//55
f 30//56 22//56 81//56
f 21//57 83//57 82//57
f 84//58 18//58 17//58
f 30//59 68//59 85//59
f 40//60 78//60 80//60
f 56//61 86//61 57//61
f 71//62 87//62 11//62
f 22//63 12//63 20//63
f 69//64 81//64 82//64
f 28//65 32//65 3//65
f 32//66 6//66 3//66
f 50//67 47//67 51//67
f 58//68 65//68 10//68
f 88//69 46//69 89//69
f 82//70 88//70 89//70
f 49//71 36//71 8//71
f 38//72 34//72 41//72
f 34//73 49//73 41//73
f 73//74 50//74 52//74
f 64//75 13//75 73//75
f 27//76 2//76 1//76
f 72//77 73//77 13//77
f 44//78 47//78 62//78
f 44//79 90//79 75//79
f 75//80 51//80 44//80
f 24//81 72//81 68//81
f 26//82 48//82 27//82
f 1//83 25//83 27//83
f 91//84 38//84 37//84
f 50//85 66//85 47//85
f 37//86 77//86 76//86
f 61//87 43//87 42//87
f 80//88 63//88 40//88
f 12//89 22//89 85//89
f 13//90 68//90 72//90
f 62//91 47//91 48//91
f 68//92 12//92 85//92
f 71//93 92//93 83//93
f 20//94 83//94 21//94
f 33//95 82//95 89//95
f 81//96 22//96 21//96
f 75//97 45//97 51//97
f 3//98 2//98 23//98
f 23//99 68//99 30//99
f 23//100 30//100 29//100
f 28//101 3//101 29//101
f 49//102 8//102 26//102
f 48//103 26//103 8//103
f 27//104 66//104 73//104
f 1//105 77//105 25//105
f 85//106 22//106 30//106
f 24//107 2//107 72//107
f 51//108 47//108 44//108
f 73//109 52//109 64//109
f 93//110 58//110 10//110
f 50//111 73//111 66//111
f 77//112 37//112 25//112
f 5//113 76//113 1//113
f 63//114 52//114 15//114
f 59//115 60//115 42//115
f 42//116 44//116 62//116
f 41//117 49//117 26//117
f 80//118 94//118 63//118
f 55//119 87//119 71//119
f 67//120 17//120 19//120
f 53//121 17//121 67//121
f 36//122 10//122 8//122
f 33//123 18//123 69//123
f 95//124 4//124 6//124
f 40//125 39//125 78//125
f 96//126 71//126 64//126
f 68//127 13//127 12//127
f 87//128 55//128 11//128
f 71//129 83//129 20//129
f 71//130 20//130 55//130
f 82//131 83//131 88//131
f 70//132 28//132 69//132
f 89//133 46//133 33//133
f 20//134 12//134 55//134
f 67//135 19//135 46//135
f 40//136 63//136 15//136
f 69//137 82//137 33//137
f 93//138 59//138 58//138
f 23//139 29//139 3//139
f 36//140 93//140 10//140
f 69//141 28//141 81//141
f 97//142 88//142 83//142
f 97//143 83//143 92//143
f 98//144 99//144 100//144
f 101//145 102//145 103//145
f 104//146 31//146 70//146
f 105//147 106//147 104//147
f 107//148 108//148 109//148
f 110//149 108//149 111//149
f 112//150 113//150 114//150
f 5//151 113//151 115//151
f 116//152 103//152 117//152
f 118//153 96//153 80//153
f 119//154 110//154 120//154
f 121//155 122//155 123//155
f 124//156 125//156 126//156
f 127//157 112//157 128//157
f 104//158 106//158 31//158
f 105//159 117//159 103//159
f 54//160 46//160 88//160
f 56//161 14//161 16//161
f 103//162 122//162 121//162
f 105//163 103//163 106//163
f 31//164 28//164 70//164
f 129//165 130//165 131//165
f 132//166 104//166 70//166
f 126//167 133//167 134//167
f 102//168 122//168 103//168
f 91//169 37//169 76//169
f 135//170 130//170 133//170
f 136//171 131//171 100//171
f 132//172 70//172 18//172
f 103//173 116//173 101//173
f 125//174 101//174 126//174
f 101//175 125//175 102//175
f 137//176 138//176 139//176
f 5//177 138//177 113//177
f 91//178 115//178 140//178
f 141//179 90//179 142//179
f 119//180 90//180 43//180
f 16//181 141//181 129//181
f 140//182 35//182 34//182
f 134//183 133//183 143//183
f 133//184 126//184 135//184
f 88//185 97//185 54//185
f 134//186 143//186 142//186
f 98//187 135//187 99//187
f 130//188 135//188 98//188
f 86//189 136//189 100//189
f 117//190 105//190 144//190
f 94//191 96//191 64//191
f 4//192 95//192 139//192
f 145//193 146//193 109//193
f 113//194 112//194 35//194
f 141//195 130//195 129//195
f 128//196 112//196 111//196
f 97//197 79//197 147//197
f 137//198 120//198 138//198
f 138//199 5//199 139//199
f 129//200 131//200 136//200
f 108//201 107//201 128//201
f 43//202 109//202 108//202
f 110//203 114//203 138//203
f 130//204 141//204 143//204
f 86//205 56//205 136//205
f 148//206 6//206 123//206
f 121//207 32//207 106//207
f 125//208 122//208 102//208
f 80//209 79//209 118//209
f 9//210 65//210 7//210
f 43//211 90//211 44//211
f 35//212 145//212 36//212
f 61//213 145//213 109//213
f 145//214 35//214 149//214
f 61//215 109//215 43//215
f 61//216 60//216 145//216
f 113//217 35//217 140//217
f 140//218 34//218 91//218
f 56//219 129//219 136//219
f 107//220 109//220 146//220
f 149//221 127//221 107//221
f 149//222 107//222 146//222
f 112//223 114//223 111//223
f 108//224 128//224 111//224
f 108//225 110//225 119//225
f 111//226 114//226 110//226
f 127//227 149//227 112//227
f 149//228 35//228 112//228
f 113//229 140//229 115//229
f 138//230 120//230 110//230
f 138//231 114//231 113//231
f 139//232 95//232 148//232
f 134//233 124//233 126//233
f 118//234 79//234 97//234
f 119//235 43//235 108//235
f 36//236 145//236 93//236
f 91//237 76//237 115//237
f 91//238 34//238 38//238
f 120//239 90//239 119//239
f 142//240 90//240 137//240
f 75//241 90//241 74//241
f 90//242 141//242 74//242
f 141//243 45//243 74//243
f 139//244 5//244 4//244
f 18//245 84//245 132//245
f 143//246 133//246 130//246
f 71//247 96//247 92//247
f 123//248 125//248 124//248
f 93//249 60//249 59//249
f 131//250 130//250 98//250
f 106//251 32//251 31//251
f 123//252 6//252 121//252
f 6//253 32//253 121//253
f 107//254 127//254 128//254
f 145//255 60//255 93//255
f 120//256 137//256 90//256
f 6//257 148//257 95//257
f 142//258 137//258 139//258
f 124//259 142//259 139//259
f 16//260 129//260 56//260
f 100//261 131//261 98//261
f 96//262 118//262 92//262
f 141//263 142//263 143//263
f 148//264 123//264 124//264
f 142//265 124//265 134//265
f 148//266 124//266 139//266
f 123//267 122//267 125//267
f 103//268 121//268 106//268
f 92//269 118//269 97//269
f 76//270 5//270 115//270
f 64//271 63//271 94//271
f 94//272 80//272 96//272
f 45//273 141//273 16//273
f 149//274 146//274 145//274
f 150//275 151//275 152//275
f 153//275 154//275 155//275
f 156//275 157//275 158//275
f 156//275 159//275 157//275
f 160//275 159//275 156//275
f 161//275 162//275 163//275
f 164//275 162//275 161//275
f 165//275 166//275 167//275
f 168//275 164//275 169//275
f 170//275 164//275 168//275
f 171//275 150//275 172//275
f 173//275 150//275 171//275
f 174//275 150//275 173//275
f 175//275 150//275 174//275
f 159//275 154//275 176//275
f 159//275 155//275 154//275
f 177//275 178//275 179//275
f 157//275 175//275 180//275
f 181//275 182//275 183//275
f 184//275 182//275 181//275
f 176//275 157//275 159//275
f 161//275 169//275 164//275
f 152//275 172//275 150//275
f 180//275 158//275 157//275
f 158//275 185//275 156//275
f 158//275 186//275 185//275
f 158//275 187//275 186//275
f 158//275 188//275 187//275
f 158//275 189//275 188//275
f 158//275 166//275 189//275
f 158//275 167//275 166//275
f 181//275 190//275 184//275
f 181//275 162//275 190//275
f 181//275 163//275 162//275
f 167//275 178//275 165//275
f 167//275 179//275 178//275
f 179//275 182//275 177//275
f 179//275 183//275 182//275
f 174//275 180//275 175//275
f 181//276 183//276 79//276
f 181//276 79//276 78//276
f 161//277 163//277 78//277
f 161//277 78//277 39//277
f 169//278 161//278 39//278
f 169//279 39//279 57//279
f 152//280 151//280 84//280
f 152//280 84//280 17//280
f 174//281 173//281 53//281
f 174//281 53//281 54//281
f 167//282 158//282 147//282
f 171//283 172//283 17//283
f 171//283 17//283 53//283
f 168//284 169//284 57//284
f 168//284 57//284 86//284
f 170//285 168//285 86//285
f 163//286 181//286 78//286
f 172//287 152//287 17//287
f 175//288 157//288 104//288
f 175//288 104//288 132//288
f 189//289 166//289 101//289
f 189//289 101//289 116//289
f 155//290 159//290 117//290
f 155//290 117//290 144//290
f 166//291 165//291 101//291
f 182//292 184//292 135//292
f 151//293 150//293 132//293
f 151//293 132//293 84//293
f 157//294 176//294 104//294
f 162//295 164//295 100//295
f 176//296 154//296 105//296
f 176//296 105//296 104//296
f 178//297 177//297 126//297
f 154//298 153//298 144//298
f 154//298 144//298 105//298
f 159//299 160//299 116//299
f 159//300 116//300 117//300
f 179//301 167//301 147//301
f 179//301 147//301 79//301
f 158//302 180//302 97//302
f 158//302 97//302 147//302
f 190//303 162//303 100//303
f 190//303 100//303 99//303
f 180//304 174//304 54//304
f 180//304 54//304 97//304
f 164//305 170//305 86//305
f 164//305 86//305 100//305
f 177//306 182//306 135//306
f 177//306 135//306 126//306
f 150//307 175//307 132//307
f 153//308 155//308 144//308
f 165//309 178//309 126//309
f 165//309 126//309 101//309
f 184//310 190//310 99//310
f 184//310 99//310 135//310
f 160//311 156//311 116//311
f 186//312 187//312 116//312
f 156//313 185//313 116//313
f 185//314 186//314 116//314
f 173//315 171//315 53//315
f 183//316 179//316 79//316
f 188//317 189//317 116//317
f 187//317 188//317 116//317
